<svg width="120" height="88" viewBox="0 0 120 88" fill="none" xmlns="http://www.w3.org/2000/svg">
<path d="M117.523 33.7464C114.821 31.8714 108.628 31.1683 103.787 32.1058C103.224 27.4183 100.634 23.3172 96.1307 19.6844L93.5413 17.8094L91.7394 20.5047C89.488 24.0203 88.3621 28.9422 88.6996 33.6297C88.8121 35.2698 89.375 38.1995 91.0639 40.7776C89.488 41.7151 86.2227 42.887 81.9444 42.887H0.541279L0.316279 43.8245C-0.472159 48.5116 -0.472159 63.1595 8.76034 74.4091C15.741 82.9633 26.0994 87.2992 39.7227 87.2992C69.2211 87.2992 91.0639 73.1195 101.31 47.4569C105.363 47.5741 114.033 47.4569 118.424 38.6678C118.536 38.4334 118.761 37.9647 119.549 36.2073L120 35.2698L117.523 33.7464ZM65.6183 0.700928H53.2339V12.4192H65.6183V0.700928ZM65.6183 14.763H53.2339V26.4812H65.6183V14.7625V14.763ZM50.9816 14.763H38.5972V26.4812H50.9816V14.7625V14.763ZM36.3449 14.763H23.96V26.4812H36.3449V14.7625V14.763ZM21.7082 28.825H9.32331V40.5433H21.7077V28.8245L21.7082 28.825ZM36.3449 28.825H23.96V40.5433H36.3449V28.8245V28.825ZM50.9816 28.825H38.5972V40.5433H50.9816V28.8245V28.825ZM65.6188 28.825H53.2335V40.5433H65.6188V28.8245V28.825ZM80.2555 28.825H67.8702V40.5433H80.2555V28.8245V28.825Z" fill="#2396ED"/>
</svg>
