<svg width="35" height="35" viewBox="0 0 35 35" fill="none" xmlns="http://www.w3.org/2000/svg">
<rect width="35" height="35" rx="17.5" fill="white" fill-opacity="0.1"/>
<path d="M22.6516 9.09998H12.3484C10.5569 9.09998 9.1 10.5563 9.1 12.3471V15.778V22.6528C9.1 24.4437 10.5569 25.9 12.3484 25.9H22.6516C24.4431 25.9 25.9 24.4437 25.9 22.6528V15.7714V12.3406C25.8934 10.5563 24.4366 9.09998 22.6516 9.09998ZM23.5834 11.0352H23.9575V11.4025V13.8822L21.1159 13.8887L21.1094 11.0417L23.5834 11.0352ZM15.0981 15.7714C15.6362 15.0302 16.5091 14.5382 17.4934 14.5382C18.4778 14.5382 19.3506 15.0236 19.8887 15.7714C20.2431 16.2569 20.4466 16.8538 20.4466 17.4967C20.4466 19.1236 19.1209 20.4552 17.4869 20.4552C15.8528 20.4552 14.5403 19.1236 14.5403 17.4967C14.5403 16.8538 14.7503 16.2569 15.0981 15.7714ZM24.2594 22.6462C24.2594 23.5318 23.5375 24.2534 22.6516 24.2534H12.3484C11.4625 24.2534 10.7406 23.5318 10.7406 22.6462V15.7714H13.2475C13.0309 16.3028 12.9062 16.8866 12.9062 17.4967C12.9062 20.0288 14.9669 22.0887 17.5 22.0887C20.0331 22.0887 22.0937 20.0288 22.0937 17.4967C22.0937 16.8866 21.9691 16.3028 21.7525 15.7714H24.2594V22.6462Z" fill="#7572D5"/>
</svg>
